<svg xmlns="http://www.w3.org/2000/svg" viewBox="0 0 137 211"><g fill="#FFF"><path d="M122.2 172.9C106 172.9 107 154 107 154h27.4c-.9 6.7-2.8 12.9-5.6 18.8 0 0-2.2.1-6.6.1M113.5 193c-12 10.8-28.2 17.5-45.9 17.5-24.5 0-46-12.7-57.9-31.5l89.7-.1 14.1 14.1M61.6 141.1l31.1 31.6H6.3C2.3 164.3 0 155 0 145.1v-3.9l61.6-.1M0 135v-32h23.5l32.3 32H0M0 79.5l17.3 17.3H0V79.5M135 40.5H0s-.1 19 13.9 19H135v-19M135 78H35.2s-2 19 14 19H135V78M86.8 134.5c-16.2 0-15.5-19-15.5-19h63.8l.1 19H86.8M11.9 6.3C10.7 4.5 9.7 3.9 8 3.9c-2.1 0-3.7 1.5-3.7 3.4 0 1 .5 1.8 1.4 2.4.5.3 1.1.7 1.7.9l.7.3 1.4.6c3.6 1.6 5 3.3 5 6.1 0 3.8-3.1 6.9-7 6.9-3.6 0-6.1-2-6.9-5.7l2.4-.7c.6 2.7 2.1 4.1 4.5 4.1 2.6 0 4.6-1.9 4.6-4.4 0-1.4-.6-2.4-1.8-3.2-.6-.4-1.2-.7-1.9-1l-.7-.3-.7-.2-.7-.3c-3.2-1.4-4.5-3-4.5-5.5 0-3.2 2.7-5.7 6.3-5.7 2.5 0 4.4 1.2 5.8 3.4l-2 1.3M31.1 17.9l2.6 6.3h2.7L26.4.9 16.2 24.2h2.7l2.7-6.3h9.5m-1-2.3h-7.5l3.8-8.9 3.7 8.9zM55.7 6.9C53.5 4.8 51.5 4 48.9 4c-4.8 0-9 4.2-9 9.2 0 5.1 4 9.2 9 9.2 2.5 0 4.6-.9 6.7-2.9v3.1c-2.2 1.5-4.3 2.1-6.6 2.1-6.4 0-11.6-5.2-11.6-11.4C37.4 7 42.6 1.7 49 1.7c2.5 0 4.3.6 6.6 2.2v3M74.5 11.1V2H77v22.2h-2.5V13.4H63.2v10.8h-2.5V2h2.5v9.1h11.3M92.7 6.3c-1.1-1.8-2.1-2.4-3.9-2.4-2.1 0-3.7 1.5-3.7 3.4 0 1 .5 1.8 1.4 2.4.5.3 1.1.7 1.7.9l.7.3.7.3.7.3c3.6 1.6 5 3.3 5 6.1 0 3.8-3.1 6.9-7 6.9-3.6 0-6.1-2-6.9-5.7l2.4-.7c.6 2.7 2.1 4.1 4.5 4.1 2.6 0 4.6-1.9 4.6-4.4 0-1.4-.6-2.4-1.8-3.2-.6-.4-1.2-.7-1.9-1l-.7-.3-.7-.3-.7-.3c-3.2-1.4-4.5-3-4.5-5.5 0-3.2 2.7-5.7 6.3-5.7 2.5 0 4.4 1.2 5.8 3.4l-2 1.4M102.6 4.3v6.6h8.8v2.3h-8.8v8.7h9v2.3h-11.5V2h11.5v2.3h-9M116.2 1l17.3 18.2V2h2.5v23.3L118.7 7.1v17.1h-2.5V1"/></g></svg>