<svg xmlns="http://www.w3.org/2000/svg" viewBox="0 0 160 60"><g fill="#FFF"><path d="M53.1 50.7h-1.8l-1.6-5.8c-.1-.2-.1-.6-.2-.9h-.1c0 .4-.1.7-.2.9l-1.6 5.8h-1.8c-.7-2.9-1.3-5.9-1.8-8.9.5-.1 1.2-.1 1.6-.1l1.1 5.9c.1.3.1.7.1.9h.2c0-.3.1-.6.2-.9l1.6-5.9h1.5l1.6 5.9c.1.3.1.6.2.9h.1c0-.3.1-.6.1-.9l1.2-5.9c.4 0 1 .1 1.5.1-.6 3-1.3 6-1.9 8.9zM57.6 42.8c-.6 0-.8-.4-.8-.9s.3-.9.9-.9c.6 0 .9.4.9.9-.1.5-.4.9-1 .9zm-.8 7.9v-6.9h1.5v6.9h-1.5zM64.2 45.3c-.2 0-.4-.1-.6-.1-.6 0-1 .1-1.4.5v4.9h-1.5v-6.9c.4-.1 1-.1 1.5-.1v.9h.1c.7-.9 1.1-1 1.6-1 .1 0 .3 0 .5.1 0 .6-.1 1.2-.2 1.7zM71.8 42.2h-.7c-.5 0-.7.3-.7.8v.7h1.5c0 .4 0 .9-.1 1.3h-1.4v5.6h-1.5V45h-.8v-1.3h.8v-.6c0-1.5 1-2.3 2.2-2.3.3 0 .7 0 .8.1 0 .4 0 .9-.1 1.3zM77.4 50.7v-.6h-.1c-.6.5-1.2.7-1.9.7-1.1 0-2-.5-2-2.1v-4.9c.4-.1 1-.1 1.5-.1v4.8c0 .6.3 1 1.1 1 .5 0 1-.1 1.4-.4v-5.3c.4-.1 1-.1 1.5-.1v7h-1.5zM74.9 43c-.5 0-.8-.4-.8-.8 0-.5.3-.9.8-.9s.8.4.8.9-.3.8-.8.8zm2.5 0c-.5 0-.8-.4-.8-.8 0-.5.3-.9.8-.9s.8.4.8.9-.3.8-.8.8zM85.2 50.7v-4.8c0-.5-.2-.9-1-.9-.6 0-1 .2-1.4.5v5.3h-1.5V41c.4-.1 1-.1 1.5-.1v3.6h.1c.6-.6 1.2-.8 1.9-.8 1.2 0 2 .6 2 2.1v4.9h-1.6zM92.5 45.3c-.2 0-.4-.1-.6-.1-.6 0-1 .1-1.4.5v4.9H89v-6.9c.4-.1 1-.1 1.5-.1v.9h.1c.7-.9 1.1-1 1.6-1 .1 0 .3 0 .5.1 0 .6-.1 1.2-.2 1.7zM99.3 47.7h-3.9v.1c0 1.1.4 1.7 1.7 1.7.6 0 1.4-.2 1.8-.4.1.4.3 1 .3 1.4-.6.3-1.6.4-2.2.4-2.1 0-3.3-1.2-3.3-3.5 0-2.5 1.2-3.7 3-3.7s2.7 1.1 2.7 3c-.1.2-.1.6-.1 1zm-3.9-1.1h2.4v-.4c0-1-.4-1.4-1.2-1.4-.8 0-1.2.5-1.2 1.8zM105.2 50.7v-4.8c0-.6-.2-.9-1-.9-.5 0-1 .1-1.4.5v5.3h-1.5v-6.9c.4-.1 1-.1 1.5-.1v.7h.1c.7-.6 1.3-.8 1.9-.8 1.1 0 2 .5 2 2.1v4.9h-1.6zM120.2 50.7h-1.8l-1.6-5.8c-.1-.2-.1-.6-.2-.9h-.1c0 .4-.1.7-.2.9l-1.6 5.8h-1.8c-.7-2.9-1.3-5.9-1.8-8.9.5-.1 1.2-.1 1.6-.1l1.1 5.9c.1.3.1.7.1.9h.1c0-.3.1-.6.2-.9l1.6-5.9h1.5l1.6 5.9c.1.3.1.6.2.9h.1c0-.3.1-.6.1-.9l1.2-5.9c.4 0 1 .1 1.5.1-.4 3-1.1 6-1.8 8.9zM124.6 42.8c-.6 0-.8-.4-.8-.9s.3-.9.9-.9c.6 0 .9.4.9.9-.1.5-.4.9-1 .9zm-.7 7.9v-6.9h1.5v6.9h-1.5zM129.3 50.8c-.7 0-1.6-.2-2.1-.5.1-.5.2-.9.4-1.4.5.3 1.4.5 2 .5.6 0 .8-.3.8-.7 0-1.2-3.1-.6-3.1-2.9 0-1.5 1.3-2.2 2.8-2.2.5 0 1.1.1 1.7.2 0 .4-.1.9-.2 1.4-.5-.2-1.3-.3-1.8-.3-.6 0-.8.3-.8.7 0 1.1 3.1.5 3.1 3-.1 1.6-1.4 2.2-2.8 2.2zM135.4 50.8c-.7 0-1.6-.2-2.1-.5.1-.5.2-.9.4-1.4.5.3 1.4.5 2 .5.6 0 .8-.3.8-.7 0-1.2-3.1-.6-3.1-2.9 0-1.5 1.3-2.2 2.8-2.2.5 0 1.1.1 1.7.2 0 .4-.1.9-.2 1.4-.5-.2-1.3-.3-1.8-.3-.6 0-.8.3-.8.7 0 1.1 3.1.5 3.1 3-.2 1.6-1.4 2.2-2.8 2.2zM144.9 47.7H141v.1c0 1.1.4 1.7 1.7 1.7.6 0 1.4-.2 1.8-.4.1.4.3 1 .3 1.4-.6.3-1.6.4-2.2.4-2.1 0-3.3-1.2-3.3-3.5 0-2.5 1.2-3.7 3-3.7s2.7 1.1 2.7 3c0 .2 0 .6-.1 1zm-3.9-1.1h2.4v-.4c0-1-.4-1.4-1.2-1.4-.7 0-1.1.5-1.2 1.8zM150.9 50.7v-4.8c0-.6-.2-.9-1-.9-.5 0-1 .1-1.4.5v5.3H147v-6.9c.4-.1 1-.1 1.5-.1v.7h.1c.7-.6 1.3-.8 1.9-.8 1.1 0 2 .5 2 2.1v4.9h-1.6zM155.2 50.9c-.5 0-.9-.3-.9-.9 0-.6.4-.9.9-.9s.8.3.8.9c0 .6-.4.9-.8.9z"/></g><path fill="#FFF" d="M11.1 8.1v2.6l17.5 2.4v18.5l2.6.4V10.9z"/><path fill="#FFF" d="M6 33.3l20.1 2.8v-21L6 12.2z"/><g fill="#FFF"><path d="M49.5 33.6c-1.7 0-3.6-.2-5.2-.9v-3.9c.4-.1 1-.1 1.4-.1.4 0 1.1 0 1.4.1l.3 1.7c.6.2 1.4.3 2.3.3 1.9 0 2.7-.8 2.7-2.2 0-3.3-8.1-2.9-8.1-8.4 0-3.4 2.7-5.4 6.7-5.4 1.4 0 3.1.2 4.3.5v4.1c-.4.1-1.1.1-1.4.1-.4 0-1.1-.1-1.5-.1l-.2-1.7c-.4-.1-1.1-.1-1.7-.1-2 0-2.6.8-2.6 2.2 0 2.9 8.1 2.7 8.1 8.3 0 3.5-2.5 5.5-6.5 5.5zM71.5 33.3H58.9c0-.4-.1-.9-.1-1.3s0-.9.1-1.3l1.8-.3V17.9l-1.8-.3c0-.4-.1-.9-.1-1.3s0-.9.1-1.3H66c0 .4.1.9.1 1.3s0 .9-.1 1.3l-1.9.3v12.7h4.2l.2-1.7c.4-.1 1.1-.1 1.5-.1.4 0 1 0 1.4.1v4.4zM90.1 17.6l-1.5.3v8.7c0 4.9-2.4 7-6.8 7-4.7 0-6.8-2.1-6.8-7v-8.7l-1.5-.3c0-.4-.1-.9-.1-1.3s0-.9.1-1.3h6.4c.1.4.1.9.1 1.3s0 .9-.1 1.3l-1.5.3v8.7c0 2.9.9 4 3.5 4s3.6-1.1 3.6-4v-8.7l-1.5-.3c-.1-.4-.1-.9-.1-1.3s0-.9.1-1.3h6.2c.1.4.1.9.1 1.3-.1.4-.1.9-.2 1.3zM100.6 33.5c-1.9 0-5.2-.1-7.4-.2 0-.4-.1-.9-.1-1.3s0-.9.1-1.3l1.8-.3V17.9l-1.8-.3c0-.4-.1-.9-.1-1.3s0-.9.1-1.3c2.2-.1 4.8-.2 7.1-.2 4.2 0 6.5 1.4 6.5 4.8 0 1.9-1.1 3.3-2.5 3.9v.2c1.9.6 3 2.1 3 4.3 0 4.1-2.9 5.5-6.7 5.5zm-.1-16c-.6 0-1.5 0-2.1.1v5.2h2.5c1.5 0 2.5-.9 2.5-2.7 0-1.8-1-2.6-2.9-2.6zm.4 7.8h-2.5v5.5c.5 0 1.7.1 2.3.1 2.1 0 3.1-.9 3.1-2.9 0-1.9-1.1-2.7-2.9-2.7z"/></g></svg>