<svg xmlns="http://www.w3.org/2000/svg" viewBox="0 0 330 35"><path fill="#FFF" d="M206 26.7c0 2.1-1.6 3.8-3.8 3.8-2.1 0-3.8-1.7-3.8-3.8 0-2 1.6-3.8 3.8-3.8 2.1.1 3.8 1.8 3.8 3.8z"/><g fill="#FFF"><path d="M226.4 30.1c0-1.7.2-4.4.5-6l-.1-.1c-1.4 4-4.8 6.5-8.9 6.5-6.3 0-9.3-4.5-9.3-11.9 0-9.2 5.1-14 12.8-14 1.7 0 3.3.1 5.3.3V.4h2.7v29.7h-3zm.1-22.7c-1.9-.5-3.8-.7-5.6-.7-5.8 0-9.6 3.5-9.6 11.6 0 6.1 2.1 10 6.8 10 5.7 0 8.4-6.7 8.4-11.3V7.4zM234.6 30.1V4.9h2.7v25.2h-2.7zM268.6 30.1V4.9h2.7v25.2h-2.7zM286.8 30.5c-4.8 0-6.2-2.3-6.2-7.3V7h-6V4.9h6V.4h2.7v4.4h8V7h-8v14.7c0 5.1.9 6.3 4.2 6.3 1.3 0 2.7-.2 3.8-.5V30c-1.3.3-3 .5-4.5.5zM309.4 30.1c0-2.1.1-4.2.3-5.7l-.1-.1c-1.2 3.4-4.6 6.2-9.1 6.2-3.8 0-6.8-1.9-6.8-5.9 0-5 5.3-8.8 15.7-8.8v-2.4c0-4.3-1.5-6.8-6.1-6.8-2.4 0-5.5.8-7.8 2.3l-.3-2.5c2.3-1.1 5.2-2 8.6-2 6.5 0 8.3 3.5 8.3 8V22c0 2.7.1 5.7.1 8h-2.8zm0-12.1c-10.6 0-12.9 3.4-12.9 6s1.8 4.2 4.6 4.2c5 0 8.3-5 8.3-9.9V18zM318.2 30.1V.4h2.7v29.7h-2.7zM248 30.1h6.7c2.8 0 4.7.7 5.6 2.1l2.8-1.1c-1.3-2.2-3.9-3.5-7.7-3.5H250c-3.2 0-4.8-.8-4.8-2.4 0-1 .7-2 2.1-2.6 1.1.4 2.6.5 3.9.5 7.4 0 11-4.3 11-9.6 0-2.8-1.1-5.1-2.9-6.5h5V4.9h-8.6c-1.2-.3-2.4-.4-3.6-.4-6.7 0-10.8 4.4-10.8 9.7 0 3.4 1.4 6 3.7 7.4-1.7.9-2.6 2.4-2.6 4s1 3 2.5 3.6c1.8.7 2.5.9 3.1.9zm4.2-23.5c4.7 0 7.4 2.6 7.4 7.2s-2.9 7.1-7.6 7.1c-4.8 0-7.5-2.4-7.5-7-.1-4.2 2.7-7.3 7.7-7.3z"/></g><g fill="#FFF"><path d="M54.6 30.6c-1.7 0-3.5-.2-5.2-.5l.4-6.4c1.4.5 3.5.9 5.4.9 1.7 0 2.8-.7 2.8-1.9 0-3.7-9.5-1.5-9.5-10.2 0-5 3.9-8.3 10.6-8.3 1.3 0 3 .2 4.6.4l-.4 6.1c-1.5-.4-3-.7-4.5-.7-2 0-2.8.8-2.8 1.8 0 3.2 9.5 2 9.5 9.9-.1 5-4.2 8.9-10.9 8.9zM83.1 30.1L81.8 26H74l-1.3 4.1h-6.9L74 4.7h8l8.7 25.4h-7.6zM79 17.3c-.5-1.5-.9-2.8-1.2-4.4h-.1c-.2 1.5-.7 3.2-1.2 4.8l-.9 2.8H80l-1-3.2zM102.5 30.4c-10 0-12-6.9-12-12 0-8.5 4.8-13.9 13.1-13.9 1.7 0 3.4.2 4.9.6l-.8 6.3c-1.2-.3-2.7-.6-4.1-.6-3.3 0-5.4 2.3-5.4 6.4 0 4.4 1.7 6.8 5.6 6.8 1.1 0 2.8-.3 3.8-.7l.8 6.2c-1.7.6-3.9.9-5.9.9zM126.2 30.1v-10h-7.6v10h-7V4.7h7V14h7.6V4.7h7v25.4h-7zM142.1 30.6c-1.7 0-3.5-.2-5.2-.5l.4-6.4c1.4.5 3.5.9 5.4.9 1.7 0 2.8-.7 2.8-1.9 0-3.7-9.5-1.5-9.5-10.2 0-5 3.9-8.3 10.6-8.3 1.3 0 3 .2 4.6.4l-.4 6.1c-1.5-.4-3-.7-4.5-.7-2 0-2.8.8-2.8 1.8 0 3.2 9.5 2 9.5 9.9-.1 5-4.2 8.9-10.9 8.9zM155.7 30.1V4.7h14.9v5.9h-7.9v3.6h7.4v5.7h-7.4V24h7.9v6.1h-14.9zM187 30.1l-4.2-8.7c-1-2-1.9-4-2.5-5.7.2 1.5.2 2.4.2 4v10.4h-6.7V4.7h8.9l3.7 7.6c1.1 2.3 2.2 4.6 3.1 6.6-.2-1.7-.3-3.7-.3-5.3V4.7h6.7v25.4H187z"/></g><path fill="#FFF" d="M37.4 21.9z"/><g fill="#FFF"><path d="M38.2 8.5v-1c0-1.6-1.3-2.9-2.9-2.9H22.1c-1.6 0-2 .9-.9 2.1l1.9 1.9h15.1zM38.2 11.4H26.1l4.3 4.4h7.8zM33.4 18.7l2.7 2.7c1.1 1.1 2.1.8 2.1-.9v-1.8h-4.8z"/></g><path fill="#FFF" d="M36.3 26.6L19.7 9.9 16 6.2c-.9-.9-3-1.6-4.6-1.6H2.7c-.8-.1-1.5.6-1.5 1.4v22.8c0 .8.7 1.5 1.5 1.5h18.9l4.4 4.4 4.4-4.4h5.5c.8 0 1.5-.6 1.5-1.3 0-.8.1-1.3-1.1-2.4zM324.3 7c0-1.3 1-2.3 2.3-2.3 1.3 0 2.3 1.1 2.3 2.3 0 1.3-1 2.4-2.3 2.4-1.3 0-2.3-1.1-2.3-2.4zm.7 0c0 1 .7 1.7 1.7 1.7.9 0 1.7-.8 1.7-1.7 0-.9-.7-1.7-1.7-1.7S325 6.1 325 7z"/><path fill="#FFF" d="M326.9 8l-.5-.8V8h-.4V6.1h.5c.4 0 .7.1.7.5 0 .3-.2.5-.5.5l.2.2.5.6h-.5zm-.4-1.7h-.1v.5h.1c.2 0 .4-.1.4-.3-.1-.1-.2-.2-.4-.2z"/></svg>